<?xml version="1.0" encoding="UTF-8" standalone="no"?>
<!-- Created with Inkscape (http://www.inkscape.org/) -->

<svg
   xmlns:dc="http://purl.org/dc/elements/1.1/"
   xmlns:cc="http://creativecommons.org/ns#"
   xmlns:rdf="http://www.w3.org/1999/02/22-rdf-syntax-ns#"
   xmlns:svg="http://www.w3.org/2000/svg"
   xmlns="http://www.w3.org/2000/svg"
   xmlns:sodipodi="http://sodipodi.sourceforge.net/DTD/sodipodi-0.dtd"
   xmlns:inkscape="http://www.inkscape.org/namespaces/inkscape"
   version="1.1"
   id="svg4570"
   width="1779"
   height="1917"
   viewBox="0 0 1779 1917"
   sodipodi:docname="kawaii_robot_power.png"
   inkscape:version="0.92.2 (5c3e80d, 2017-08-06)">
  <metadata
     id="metadata4576">
    <rdf:RDF>
      <cc:Work
         rdf:about="">
        <dc:format>image/svg+xml</dc:format>
        <dc:type
           rdf:resource="http://purl.org/dc/dcmitype/StillImage" />
        <dc:title></dc:title>
      </cc:Work>
    </rdf:RDF>
  </metadata>
  <defs
     id="defs4574" />
  <sodipodi:namedview
     pagecolor="#ffffff"
     bordercolor="#666666"
     borderopacity="1"
     objecttolerance="10"
     gridtolerance="10"
     guidetolerance="10"
     inkscape:pageopacity="0"
     inkscape:pageshadow="2"
     inkscape:window-width="1310"
     inkscape:window-height="829"
     id="namedview4572"
     showgrid="false"
     inkscape:zoom="3.5691003"
     inkscape:cx="1259.8722"
     inkscape:cy="905.94311"
     inkscape:window-x="450"
     inkscape:window-y="118"
     inkscape:window-maximized="0"
     inkscape:current-layer="svg4570" />
  <g
     id="g5143">
    <path
       style="fill:#fefefe"
       d="M 0,958.5 V 0 H 889.5 1779 V 958.5 1917 H 889.5 0 Z"
       id="path5159"
       inkscape:connector-curvature="0" />
    <path
       style="fill:#9cd6fd"
       d="m 670.11233,1883.4195 c -16.64019,-4.4752 -30.21638,-17.5568 -35.72073,-34.4195 -1.60112,-4.9051 -1.83445,-10.6379 -2.15713,-53 -0.23049,-30.2594 0.0272,-50.3923 0.70987,-55.4685 1.07835,-8.0181 4.99936,-18.1019 9.03255,-23.2293 1.11271,-1.4145 2.02311,-2.8929 2.02311,-3.2852 0,-0.3923 -8.6625,-0.9793 -19.25,-1.3044 -21.19412,-0.6508 -31.24238,-2.1949 -44.56374,-6.8478 -17.46846,-6.1015 -31.4879,-15.2061 -44.79137,-29.0887 -17.89865,-18.678 -28.41101,-41.2302 -31.35961,-67.2761 -0.65215,-5.7606 -1.02182,-70.0986 -1.02708,-178.75 -0.005,-93.3625 -0.34889,-169.75 -0.76529,-169.75 -0.4164,0 -3.2289,2.0439 -6.25,4.542 -13.63384,11.2736 -27.52191,15.0221 -52.49291,14.168 -16.55842,-0.5663 -21.92195,-1.7719 -32.52153,-7.3102 -8.79152,-4.5935 -15.9145,-11.0304 -21.49494,-19.4246 -2.55042,-3.8364 -5.04342,-6.9752 -5.54,-6.9752 -0.49659,0 -1.87525,1.9125 -3.0637,4.25 -1.18844,2.3375 -5.58509,7.6715 -9.77032,11.8532 -14.09308,14.0815 -28.05724,18.5135 -55.60951,17.6495 -12.86636,-0.4035 -16.12232,-0.8518 -22.89015,-3.1515 -4.33958,-1.4747 -9.88141,-3.8481 -12.31517,-5.2744 -5.71688,-3.3503 -14.167,-11.0921 -17.7494,-16.2615 -1.54951,-2.2359 -3.37767,-4.0653 -4.06259,-4.0653 -0.68492,0 -2.51264,1.6875 -4.0616,3.75 -17.39991,23.1687 -44.41226,43.0175 -75.06965,55.1616 -22.16476,8.78 -45.03457,14.389 -71.85144,17.6222 -23.518886,2.8355 -32.387343,1.1938 -41.541453,-7.6899 -12.026283,-11.6711 -12.624935,-31.213 -1.340678,-43.7638 6.281485,-6.9865 12.609098,-9.804 24.882131,-11.0791 34.17256,-3.5504 56.66892,-9.4029 77.87526,-20.2595 30.22744,-15.475 47.39843,-37.5254 49.2472,-63.2415 2.67861,-37.2593 -31.38751,-71.6162 -84.13138,-84.8497 -14.05771,-3.5271 -19.84402,-4.4801 -37.49108,-6.1753 -18.231073,-1.7512 -23.301358,-3.6796 -30.382131,-11.5551 -14.098953,-15.6815 -9.135433,-40.5992 9.95922,-49.997 4.506091,-2.2178 6.065949,-2.4159 18.422911,-2.3404 27.81613,0.1698 63.59312,8.0174 91.10229,19.9829 12.15156,5.2855 28.33421,14.6388 38.53206,22.2708 10.40527,7.7872 25.19425,22.3504 30.86565,30.3944 2.2,3.1204 4.69048,5.695 5.53439,5.7214 0.84392,0.026 2.29516,-1.2399 3.22499,-2.8139 3.13396,-5.3054 14.45683,-14.889 21.94438,-18.5736 4.01293,-1.9747 10.44624,-4.2518 14.29624,-5.0601 9.20012,-1.9316 33.72301,-1.9522 42.76606,-0.036 16.75357,3.5502 31.93456,14.4406 39.90936,28.6298 1.20608,2.1459 2.49734,3.9017 2.86948,3.9017 0.37213,0 2.55026,-2.8972 4.84028,-6.4382 8.29531,-12.8269 22.92403,-22.9316 37.74392,-26.0714 9.17233,-1.9433 33.62566,-1.9313 42.84221,0.021 9.00464,1.9075 19.55039,6.9756 26.71124,12.8371 3.12541,2.5583 5.89594,4.6515 6.15675,4.6515 0.26081,0 0.6827,-18.5625 0.93755,-41.25 0.49807,-44.3396 0.78353,-47.17 6.42957,-63.75 4.74995,-13.94854 12.40398,-27.11674 22.37817,-38.5 l 5.25729,-6 -22.92094,-0.7108 c -25.57215,-0.79303 -45.28111,-3.21657 -63.47307,-7.80507 C 349.41452,912.3747 274.64548,827.16395 262.48429,723.20106 261.27724,712.88234 261,693.75812 261,620.81514 c 0,-49.33341 -0.35063,-89.91381 -0.77919,-90.17867 -0.42855,-0.26486 -2.29177,2.4358 -4.14048,6.00146 -6.98562,13.47339 -21.2295,23.85715 -36.18666,26.38 -26.04085,4.39236 -49.52122,-10.52294 -57.55547,-36.56064 C 160.66451,521.03315 160.5,516.29374 160.5,473.5 c 0,-51.88537 0.0977,-52.89839 6.24729,-64.75239 6.38767,-12.31303 20.27272,-22.76905 34.05193,-25.64253 22.08523,-4.60558 44.73785,6.19258 55.38551,26.40144 2.34176,4.44457 3.8804,6.44677 4.22159,5.49348 0.29527,-0.825 0.70332,-32.55 0.90679,-70.5 l 0.36994,-69 2.59706,-14 c 3.20338,-17.26851 8.36278,-35.37339 14.39113,-50.5 C 309.77617,132.95001 379.36845,74.645236 461.1716,58.100263 485.12559,53.255485 461.69446,53.5 902,53.5 c 393.0873,0 414.0677,0.08876 425,1.798035 48.2532,7.544435 90.011,26.44096 127,57.471005 42.548,35.69346 73.5972,88.91853 83.9488,143.90655 3.9445,20.95287 4.3034,27.96158 4.9312,96.30392 l 0.62,67.47951 3.2784,-5.11131 c 6.4231,-10.01426 16.8869,-18.16058 28.2216,-21.97127 7.9103,-2.65942 23.4036,-2.41958 31.4193,0.48637 18.1592,6.58337 31.0779,22.60078 33.6455,41.71597 0.6914,5.147 0.9579,24.01771 0.7345,52 -0.3413,42.74545 -0.412,44.09522 -2.6391,50.42122 -7.4602,21.18951 -26.4635,35 -48.1602,35 -16.8488,0 -33.044,-8.64689 -42.154,-22.50671 l -4.346,-6.61201 -0.5777,84.80936 c -0.4938,72.49199 -0.826,86.55219 -2.2872,96.80936 -6.9964,49.11356 -24.4865,89.98583 -54.3458,127 -8.982,11.13425 -28.0738,30.14727 -38.7893,38.62931 -35.3025,27.94424 -78.0386,46.06883 -123.5,52.37689 -7.4451,1.03306 -22.8712,1.80459 -43.75,2.18814 -17.7375,0.32585 -32.25,0.78307 -32.25,1.01604 0,0.23297 2.3625,3.10146 5.25,6.37443 7.2979,8.27212 16.0836,22.5642 19.8086,32.22343 7.5351,19.53916 8.9414,31.14586 8.9414,73.79776 0,16.9917 0.2319,30.894 0.5154,30.894 0.2834,0 2.8709,-1.5507 5.75,-3.446 2.879,-1.8953 8.8346,-4.7078 13.2346,-6.25 7.7371,-2.7119 8.6572,-2.804 28,-2.804 18.2844,0 20.6005,0.2001 27,2.3329 13.9849,4.6609 24.134,12.3349 32.039,24.2258 2.538,3.8177 4.9175,6.9324 5.2878,6.9215 0.3703,-0.011 2.0232,-2.3293 3.6732,-5.1519 1.65,-2.8226 5.8188,-7.97 9.2641,-11.4387 7.3983,-7.4486 18.9866,-13.6412 29.7359,-15.8902 9.2339,-1.9321 33.7381,-1.9439 42.8146,-0.021 13.715,2.9061 28.5776,12.5433 36.1126,23.4163 1.5646,2.2578 3.3838,4.1051 4.0426,4.1051 0.6588,0 2.9601,-2.5729 5.114,-5.7175 9.4734,-13.8307 31.3665,-32.7631 50.4162,-43.598 32.1703,-18.2976 74.8854,-29.8815 111,-30.102 12.357,-0.075 13.9168,0.1226 18.4229,2.3404 19.0947,9.3978 24.0582,34.3155 9.9592,49.997 -6.7529,7.5109 -12.5973,9.9281 -26.9459,11.1447 -60.6079,5.1388 -103.1197,27.2541 -119.4429,62.136 -15.9838,34.1566 1.3337,70.8865 43.6314,92.5409 21.2064,10.8566 43.7027,16.7091 77.8753,20.2595 12.273,1.2751 18.6006,4.0926 24.8821,11.0791 11.2843,12.5508 10.6856,32.0927 -1.3406,43.7638 -9.1553,8.8848 -18.0282,10.5267 -41.5415,7.6869 -63.2095,-7.6341 -112.7053,-31.0701 -142.826,-67.6273 -4.4879,-5.4469 -8.613,-9.8919 -9.1669,-9.8777 -0.5539,0.014 -2.5498,2.2994 -4.4353,5.0783 -6.6571,9.8113 -19.1166,18.4375 -32.5718,22.5507 -7.6327,2.3332 -38.7375,2.6515 -47.5,0.486 -14.5387,-3.5931 -30.0721,-14.7613 -37.2712,-26.7974 -1.7579,-2.9389 -3.6542,-5.3434 -4.2141,-5.3434 -0.56,0 -2.1424,2.1211 -3.5164,4.7136 -3.7048,6.9899 -14.4718,17.2387 -22.5599,21.4739 -12.4255,6.5064 -16.6079,7.3125 -37.9384,7.3125 -21.7929,0 -27.5099,-1.2148 -39.8609,-8.4698 -3.7735,-2.2166 -7.0226,-4.0302 -7.2202,-4.0302 -0.1976,0 -0.5028,77.5125 -0.6783,172.25 -0.317,171.1864 -0.332,172.3056 -2.4296,181.25 -2.3915,10.1977 -6.3642,21.629 -10.0785,29 -10.6128,21.0613 -30.6873,40.8954 -51.5727,50.9551 -18.185,8.759 -30.7808,11.4595 -57.8192,12.3962 l -18.7241,0.6487 3.4524,5.4706 c 1.8989,3.0089 4.4602,7.9589 5.6918,11 2.2028,5.4392 2.2444,6.3697 2.551,57.0294 0.2167,35.7981 -0.038,53.3294 -0.8352,57.5 -3.544,18.5409 -18.266,34.0324 -37.1075,39.0472 -4.3028,1.1453 -15,1.4291 -53.869,1.4291 -38.869,0 -49.5662,-0.2838 -53.869,-1.4291 -18.58761,-4.9472 -33.16958,-20.0968 -37.10301,-38.5472 -0.83644,-3.9235 -1.08017,-20.4054 -0.85027,-57.5 0.31711,-51.1655 0.35822,-52.0887 2.56158,-57.5294 1.23161,-3.0411 3.79153,-7.9911 5.68869,-11 l 3.4494,-5.4706 -87.59987,-0.2555 c -48.17993,-0.1405 -87.81919,-0.036 -88.08725,0.2319 -0.26806,0.2681 0.68229,2.183 2.11189,4.2555 4.55792,6.6075 7.66661,14.7179 8.7613,22.8575 0.67317,5.0055 0.93101,25.3547 0.70207,55.4106 -0.32268,42.3621 -0.55601,48.0949 -2.15713,53 -5.60557,17.1728 -19.08293,30.0234 -36.14995,34.4688 -8.41915,2.1929 -100.16392,2.1511 -108.34612,-0.049 z"
       id="path5157"
       inkscape:connector-curvature="0" />
    <path
       style="fill:#a7d3f1"
       d="m 670.11233,1883.4195 c -16.64019,-4.4752 -30.21638,-17.5568 -35.72073,-34.4195 -1.60112,-4.9051 -1.83445,-10.6379 -2.15713,-53 -0.23049,-30.2594 0.0272,-50.3923 0.70987,-55.4685 1.07835,-8.0181 4.99936,-18.1019 9.03255,-23.2293 1.11271,-1.4145 2.02311,-2.8929 2.02311,-3.2852 0,-0.3923 -8.6625,-0.9793 -19.25,-1.3044 -21.19412,-0.6508 -31.24238,-2.1949 -44.56374,-6.8478 -17.46846,-6.1015 -31.4879,-15.2061 -44.79137,-29.0887 -17.89865,-18.678 -28.41101,-41.2302 -31.35961,-67.2761 -0.65215,-5.7606 -1.02182,-70.0986 -1.02708,-178.75 -0.005,-93.3625 -0.34889,-169.75 -0.76529,-169.75 -0.4164,0 -3.2289,2.0439 -6.25,4.542 -13.63384,11.2736 -27.52191,15.0221 -52.49291,14.168 -16.55842,-0.5663 -21.92195,-1.7719 -32.52153,-7.3102 -8.79152,-4.5935 -15.9145,-11.0304 -21.49494,-19.4246 -2.55042,-3.8364 -5.04342,-6.9752 -5.54,-6.9752 -0.49659,0 -1.87525,1.9125 -3.0637,4.25 -1.18844,2.3375 -5.58509,7.6715 -9.77032,11.8532 -14.09308,14.0815 -28.05724,18.5135 -55.60951,17.6495 -12.86636,-0.4035 -16.12232,-0.8518 -22.89015,-3.1515 -4.33958,-1.4747 -9.88141,-3.8481 -12.31517,-5.2744 -5.71688,-3.3503 -14.167,-11.0921 -17.7494,-16.2615 -1.54951,-2.2359 -3.37767,-4.0653 -4.06259,-4.0653 -0.68492,0 -2.51264,1.6875 -4.0616,3.75 -17.39991,23.1687 -44.41226,43.0175 -75.06965,55.1616 -22.16476,8.78 -45.03457,14.389 -71.85144,17.6222 -23.518886,2.8355 -32.387343,1.1938 -41.541453,-7.6899 -12.026283,-11.6711 -12.624935,-31.213 -1.340678,-43.7638 6.281485,-6.9865 12.609098,-9.804 24.882131,-11.0791 34.17256,-3.5504 56.66892,-9.4029 77.87526,-20.2595 30.22744,-15.475 47.39843,-37.5254 49.2472,-63.2415 2.67861,-37.2593 -31.38751,-71.6162 -84.13138,-84.8497 -14.05771,-3.5271 -19.84402,-4.4801 -37.49108,-6.1753 -18.231073,-1.7512 -23.301358,-3.6796 -30.382131,-11.5551 -14.098953,-15.6815 -9.135433,-40.5992 9.95922,-49.997 4.506091,-2.2178 6.065949,-2.4159 18.422911,-2.3404 27.81613,0.1698 63.59312,8.0174 91.10229,19.9829 12.15156,5.2855 28.33421,14.6388 38.53206,22.2708 10.40527,7.7872 25.19425,22.3504 30.86565,30.3944 2.2,3.1204 4.69048,5.695 5.53439,5.7214 0.84392,0.026 2.29516,-1.2399 3.22499,-2.8139 3.13396,-5.3054 14.45683,-14.889 21.94438,-18.5736 4.01293,-1.9747 10.44624,-4.2518 14.29624,-5.0601 9.20012,-1.9316 33.72301,-1.9522 42.76606,-0.036 16.75357,3.5502 31.93456,14.4406 39.90936,28.6298 1.20608,2.1459 2.49734,3.9017 2.86948,3.9017 0.37213,0 2.55026,-2.8972 4.84028,-6.4382 8.29531,-12.8269 22.92403,-22.9316 37.74392,-26.0714 9.17233,-1.9433 33.62566,-1.9313 42.84221,0.021 9.00464,1.9075 19.55039,6.9756 26.71124,12.8371 3.12541,2.5583 5.89594,4.6515 6.15675,4.6515 0.26081,0 0.6827,-18.5625 0.93755,-41.25 0.49807,-44.3396 0.78353,-47.17 6.42957,-63.75 4.74995,-13.94854 12.40398,-27.11674 22.37817,-38.5 l 5.25729,-6 -22.92094,-0.7108 c -25.57215,-0.79303 -45.28111,-3.21657 -63.47307,-7.80507 C 349.41452,912.3747 274.64548,827.16395 262.48429,723.20106 261.27724,712.88234 261,693.75812 261,620.81514 c 0,-49.33341 -0.35063,-89.91381 -0.77919,-90.17867 -0.42855,-0.26486 -2.29177,2.4358 -4.14048,6.00146 -6.98562,13.47339 -21.2295,23.85715 -36.18666,26.38 -26.04085,4.39236 -49.52122,-10.52294 -57.55547,-36.56064 C 160.66451,521.03315 160.5,516.29374 160.5,473.5 c 0,-51.88537 0.0977,-52.89839 6.24729,-64.75239 6.38767,-12.31303 20.27272,-22.76905 34.05193,-25.64253 22.08523,-4.60558 44.73785,6.19258 55.38551,26.40144 2.34176,4.44457 3.8804,6.44677 4.22159,5.49348 0.29527,-0.825 0.70332,-32.55 0.90679,-70.5 l 0.36994,-69 2.59706,-14 c 3.20338,-17.26851 8.36278,-35.37339 14.39113,-50.5 C 309.77617,132.95001 379.36845,74.645236 461.1716,58.100263 485.12559,53.255485 461.69446,53.5 902,53.5 c 393.0873,0 414.0677,0.08876 425,1.798035 48.2532,7.544435 90.011,26.44096 127,57.471005 42.548,35.69346 73.5972,88.91853 83.9488,143.90655 3.9445,20.95287 4.3034,27.96158 4.9312,96.30392 l 0.62,67.47951 3.2784,-5.11131 c 6.4231,-10.01426 16.8869,-18.16058 28.2216,-21.97127 7.9103,-2.65942 23.4036,-2.41958 31.4193,0.48637 18.1592,6.58337 31.0779,22.60078 33.6455,41.71597 0.6914,5.147 0.9579,24.01771 0.7345,52 -0.3413,42.74545 -0.412,44.09522 -2.6391,50.42122 -7.4602,21.18951 -26.4635,35 -48.1602,35 -16.8488,0 -33.044,-8.64689 -42.154,-22.50671 l -4.346,-6.61201 -0.5777,84.80936 c -0.4938,72.49199 -0.826,86.55219 -2.2872,96.80936 -6.9964,49.11356 -24.4865,89.98583 -54.3458,127 -8.982,11.13425 -28.0738,30.14727 -38.7893,38.62931 -35.3025,27.94424 -78.0386,46.06883 -123.5,52.37689 -7.4451,1.03306 -22.8712,1.80459 -43.75,2.18814 -17.7375,0.32585 -32.25,0.78307 -32.25,1.01604 0,0.23297 2.3625,3.10146 5.25,6.37443 7.2979,8.27212 16.0836,22.5642 19.8086,32.22343 7.5351,19.53916 8.9414,31.14586 8.9414,73.79776 0,16.9917 0.2319,30.894 0.5154,30.894 0.2834,0 2.8709,-1.5507 5.75,-3.446 2.879,-1.8953 8.8346,-4.7078 13.2346,-6.25 7.7371,-2.7119 8.6572,-2.804 28,-2.804 18.2844,0 20.6005,0.2001 27,2.3329 13.9849,4.6609 24.134,12.3349 32.039,24.2258 2.538,3.8177 4.9175,6.9324 5.2878,6.9215 0.3703,-0.011 2.0232,-2.3293 3.6732,-5.1519 1.65,-2.8226 5.8188,-7.97 9.2641,-11.4387 7.3983,-7.4486 18.9866,-13.6412 29.7359,-15.8902 9.2339,-1.9321 33.7381,-1.9439 42.8146,-0.021 13.715,2.9061 28.5776,12.5433 36.1126,23.4163 1.5646,2.2578 3.3838,4.1051 4.0426,4.1051 0.6588,0 2.9601,-2.5729 5.114,-5.7175 9.4734,-13.8307 31.3665,-32.7631 50.4162,-43.598 32.1703,-18.2976 74.8854,-29.8815 111,-30.102 12.357,-0.075 13.9168,0.1226 18.4229,2.3404 19.0947,9.3978 24.0582,34.3155 9.9592,49.997 -6.7529,7.5109 -12.5973,9.9281 -26.9459,11.1447 -60.6079,5.1388 -103.1197,27.2541 -119.4429,62.136 -15.9838,34.1566 1.3337,70.8865 43.6314,92.5409 21.2064,10.8566 43.7027,16.7091 77.8753,20.2595 12.273,1.2751 18.6006,4.0926 24.8821,11.0791 11.2843,12.5508 10.6856,32.0927 -1.3406,43.7638 -9.1553,8.8848 -18.0282,10.5267 -41.5415,7.6869 -63.2095,-7.6341 -112.7053,-31.0701 -142.826,-67.6273 -4.4879,-5.4469 -8.613,-9.8919 -9.1669,-9.8777 -0.5539,0.014 -2.5498,2.2994 -4.4353,5.0783 -6.6571,9.8113 -19.1166,18.4375 -32.5718,22.5507 -7.6327,2.3332 -38.7375,2.6515 -47.5,0.486 -14.5387,-3.5931 -30.0721,-14.7613 -37.2712,-26.7974 -1.7579,-2.9389 -3.6542,-5.3434 -4.2141,-5.3434 -0.56,0 -2.1424,2.1211 -3.5164,4.7136 -3.7048,6.9899 -14.4718,17.2387 -22.5599,21.4739 -12.4255,6.5064 -16.6079,7.3125 -37.9384,7.3125 -21.7929,0 -27.5099,-1.2148 -39.8609,-8.4698 -3.7735,-2.2166 -7.0226,-4.0302 -7.2202,-4.0302 -0.1976,0 -0.5028,77.5125 -0.6783,172.25 -0.317,171.1864 -0.332,172.3056 -2.4296,181.25 -2.3915,10.1977 -6.3642,21.629 -10.0785,29 -10.6128,21.0613 -30.6873,40.8954 -51.5727,50.9551 -18.185,8.759 -30.7808,11.4595 -57.8192,12.3962 l -18.7241,0.6487 3.4524,5.4706 c 1.8989,3.0089 4.4602,7.9589 5.6918,11 2.2028,5.4392 2.2444,6.3697 2.551,57.0294 0.2167,35.7981 -0.038,53.3294 -0.8352,57.5 -3.544,18.5409 -18.266,34.0324 -37.1075,39.0472 -4.3028,1.1453 -15,1.4291 -53.869,1.4291 -38.869,0 -49.5662,-0.2838 -53.869,-1.4291 -18.58761,-4.9472 -33.16958,-20.0968 -37.10301,-38.5472 -0.83644,-3.9235 -1.08017,-20.4054 -0.85027,-57.5 0.31711,-51.1655 0.35822,-52.0887 2.56158,-57.5294 1.23161,-3.0411 3.79153,-7.9911 5.68869,-11 l 3.4494,-5.4706 -87.59987,-0.2555 c -48.17993,-0.1405 -87.81919,-0.036 -88.08725,0.2319 -0.26806,0.2681 0.68229,2.183 2.11189,4.2555 4.55792,6.6075 7.66661,14.7179 8.7613,22.8575 0.67317,5.0055 0.93101,25.3547 0.70207,55.4106 -0.32268,42.3621 -0.55601,48.0949 -2.15713,53 -5.60557,17.1728 -19.08293,30.0234 -36.14995,34.4688 -8.41915,2.1929 -100.16392,2.1511 -108.34612,-0.049 z m 106.00967,-0.8579 c 18.68818,-3.9612 34.13397,-19.0267 37.84775,-36.9159 0.73978,-3.5635 1.00597,-22.4253 0.81456,-57.7195 -0.28298,-52.1814 -0.29513,-52.453 -2.60153,-58.1638 -1.27447,-3.1557 -3.74947,-7.8807 -5.5,-10.5 L 803.5,1714.5 h -79 -79 l -3.18278,4.7624 c -1.75053,2.6193 -4.22553,7.3443 -5.5,10.5 -2.3064,5.7108 -2.31855,5.9824 -2.60153,58.1638 -0.19141,35.2942 0.0748,54.156 0.81456,57.7195 3.66596,17.6589 19.11389,32.8959 37.38068,36.8704 9.03457,1.9658 94.4749,2.0033 103.71107,0.045 z m 342.2973,-1.3445 c 14.7431,-5.5439 25.275,-16.0943 30.8121,-30.866 2.1295,-5.6811 2.2034,-7.2871 2.5414,-55.278 0.238,-33.7832 -0.011,-51.5555 -0.7862,-56.1526 -1.2705,-7.5325 -5.2885,-16.7749 -9.421,-21.6705 l -2.7434,-3.25 h -77.8721 -77.87219 l -2.15747,2.25 c -3.55857,3.7112 -8.68156,15.4051 -9.89157,22.5788 -0.77389,4.5882 -1.02919,22.4516 -0.80317,56.1987 0.32344,48.2923 0.38445,49.6137 2.5572,55.3918 6.18947,16.4598 20.72698,29.2969 36.7273,32.4315 2.9239,0.5728 25.2772,0.8977 53.9898,0.7848 47.9786,-0.1886 49.1234,-0.239 54.9193,-2.4185 z M 918.14405,1493.9524 c 24.54222,-2.4827 47.13943,-9.1462 69.61785,-20.5291 37.4556,-18.9672 66.7439,-47.8576 85.6902,-84.5264 10.618,-20.55 15.9142,-36.2223 20.2412,-59.8969 2.3894,-13.0733 2.4147,-48.4566 0.044,-62 -5.4932,-31.387 -18.2999,-61.9997 -35.7685,-85.5 -15.8875,-21.3733 -22.4662,-26 -36.9692,-26 -7.2706,0 -9.3187,0.4021 -14.1605,2.7798 -10.93372,5.3693 -16.94288,14.6583 -17.6091,27.2202 -0.51737,9.7552 1.8403,17.0264 7.6675,23.6471 15.5195,17.6328 26.6922,39.8207 31.7664,63.0847 2.5561,11.7195 2.5362,39.9036 -0.037,51.7156 -6.084,27.9326 -17.8738,49.2872 -37.96552,68.766 -19.12605,18.5427 -39.30871,29.1069 -66.78743,34.9586 -12.95791,2.7595 -38.15877,2.505 -51.79353,-0.523 -57.88161,-12.8542 -98.51072,-58.5615 -104.25754,-117.2887 -3.39043,-34.6471 7.09034,-67.9208 30.49651,-96.8185 9.38228,-11.5835 11.09545,-15.5272 11.09545,-25.5418 0,-9.7305 -2.16387,-15.1784 -8.88115,-22.3597 -6.58365,-7.0384 -12.83727,-9.5947 -23.53449,-9.6201 -7.78965,-0.018 -9.02385,0.2639 -14.76844,3.379 -15.57248,8.4444 -39.79484,45.9538 -50.14741,77.6555 -11.94959,36.5922 -13.00624,74.6599 -3.10728,111.9453 24.62625,92.7572 114.21685,155.0575 209.16718,145.4524 z m -5.95227,-165.713 c 6.52656,-2.887 13.27691,-9.4578 16.53775,-16.0979 L 931.5,1306.5 l 0.27024,-116.9245 c 0.24086,-104.2138 0.0982,-117.5163 -1.31249,-122.3688 -3.66642,-12.6121 -12.30818,-20.5807 -25.22793,-23.2628 -13.67545,-2.839 -29.50056,5.3475 -35.34802,18.286 L 867.5,1067.5 v 119.5 119.5 l 2.6128,5.5 c 5.8772,12.3716 17.4483,19.3524 30.90331,18.6437 3.70209,-0.195 8.52837,-1.2333 11.17567,-2.4043 z M 1600.2698,570.53072 c 18.0445,-3.82371 32.4788,-17.63248 37.2776,-35.66214 2.2378,-8.40793 2.103,-98.31355 -0.1589,-105.93708 -4.8772,-16.43813 -17.1044,-29.2517 -32.4795,-34.03694 -8.2888,-2.57978 -21.5807,-2.54901 -30.0537,0.0696 -11.8062,3.64874 -22.8734,12.78865 -28.1763,23.26962 l -2.679,5.29496 v 58.5393 58.5393 l 2.6971,5.44635 c 5.6462,11.40146 19.1726,21.51616 32.7138,24.46247 8.0223,1.74549 12.6752,1.74875 20.8589,0.0146 z M 226.21034,559.90557 c 13.24183,-3.8264 25.88784,-15.53382 30.71486,-28.43519 2.0834,-5.56839 2.11913,-6.72408 1.84962,-59.82423 L 258.5,417.5 l -3.22161,-6.80161 c -10.28255,-21.70896 -36.88299,-32.55727 -60.19848,-24.55041 -15.56593,5.34556 -27.3204,18.15997 -31.54872,34.39357 -2.23228,8.57032 -2.26535,96.21962 -0.0395,104.76515 5.09767,19.5713 21.4161,34.14538 41.00833,36.62479 7.56408,0.95724 13.20985,0.4304 21.71034,-2.02592 z"
       id="path5155"
       inkscape:connector-curvature="0" />
    <path
       style="fill:#f9abab"
       d="m 608,1711.8814 c -40.36854,-3.3297 -76.48014,-28.7539 -94.02805,-66.2002 -4.76216,-10.1622 -8.55425,-23.9699 -9.93667,-36.1812 -0.65215,-5.7606 -1.02182,-70.0986 -1.02708,-178.75 -0.005,-93.3625 -0.34889,-169.75 -0.76529,-169.75 -0.4164,0 -3.2289,2.0439 -6.25,4.542 -13.63384,11.2736 -27.52191,15.0221 -52.49291,14.168 -16.55842,-0.5663 -21.92195,-1.7719 -32.52153,-7.3102 -8.79152,-4.5935 -15.9145,-11.0304 -21.49494,-19.4246 -2.55042,-3.8364 -5.04342,-6.9752 -5.54,-6.9752 -0.49659,0 -1.87525,1.9125 -3.0637,4.25 -1.18844,2.3375 -5.58509,7.6715 -9.77032,11.8532 -14.09308,14.0815 -28.05724,18.5135 -55.60951,17.6495 -12.86636,-0.4035 -16.12232,-0.8518 -22.89015,-3.1515 -4.33958,-1.4747 -9.88141,-3.8481 -12.31517,-5.2744 -5.71688,-3.3503 -14.167,-11.0921 -17.7494,-16.2615 -1.54951,-2.2359 -3.37767,-4.0653 -4.06259,-4.0653 -0.68492,0 -2.51264,1.6875 -4.0616,3.75 -17.39991,23.1687 -44.41226,43.0175 -75.06965,55.1616 -22.16476,8.78 -45.03457,14.389 -71.85144,17.6222 -23.518886,2.8355 -32.387343,1.1938 -41.541453,-7.6899 -12.026283,-11.6711 -12.624935,-31.213 -1.340678,-43.7638 6.281485,-6.9865 12.609098,-9.804 24.882131,-11.0791 34.17256,-3.5504 56.66892,-9.4029 77.87526,-20.2595 30.22744,-15.475 47.39843,-37.5254 49.2472,-63.2415 2.67861,-37.2593 -31.38751,-71.6162 -84.13138,-84.8497 -14.05771,-3.5271 -19.84402,-4.4801 -37.49108,-6.1753 -18.231073,-1.7512 -23.301358,-3.6796 -30.382131,-11.5551 -14.098953,-15.6815 -9.135433,-40.5992 9.95922,-49.997 4.506091,-2.2178 6.065949,-2.4159 18.422911,-2.3404 27.81613,0.1698 63.59312,8.0174 91.10229,19.9829 12.15156,5.2855 28.33421,14.6388 38.53206,22.2708 10.40527,7.7872 25.19425,22.3504 30.86565,30.3944 2.2,3.1204 4.69048,5.695 5.53439,5.7214 0.84392,0.026 2.29516,-1.2399 3.22499,-2.8139 3.13396,-5.3054 14.45683,-14.889 21.94438,-18.5736 4.01293,-1.9747 10.44624,-4.2518 14.29624,-5.0601 9.20012,-1.9316 33.72301,-1.9522 42.76606,-0.036 16.75357,3.5502 31.93456,14.4406 39.90936,28.6298 1.20608,2.1459 2.49734,3.9017 2.86948,3.9017 0.37213,0 2.55026,-2.8972 4.84028,-6.4382 8.29531,-12.8269 22.92403,-22.9316 37.74392,-26.0714 9.17233,-1.9433 33.62566,-1.9313 42.84221,0.021 9.00464,1.9075 19.55039,6.9756 26.71124,12.8371 3.12541,2.5583 5.89594,4.6515 6.15675,4.6515 0.26081,0 0.6827,-18.5625 0.93755,-41.25 0.49807,-44.3396 0.78353,-47.17 6.42957,-63.75 4.74995,-13.94854 12.40398,-27.11674 22.37817,-38.5 l 5.25729,-6 -22.92094,-0.7108 c -25.57215,-0.79303 -45.28111,-3.21657 -63.47307,-7.80507 -93.48977,-23.58063 -164.616,-97.55659 -184.88174,-192.2892 -5.1712,-24.1729 -5.07319,-19.40162 -5.06766,-246.69493 0.003,-136.48692 0.36517,-214.69205 1.02025,-220.5 2.66861,-23.65994 8.33562,-46.63085 16.65252,-67.5 C 309.77617,132.95001 379.36845,74.645236 461.1716,58.100263 485.12559,53.255485 461.69446,53.5 902,53.5 c 393.0873,0 414.0677,0.08876 425,1.798035 81.8396,12.79569 149.7471,61.128125 187.1316,133.188905 17.0467,32.85856 25.7424,65.09556 27.7869,103.01306 0.5126,9.50615 0.8131,106.26498 0.6818,219.5 -0.215,185.41408 -0.3799,203.5125 -1.9547,214.5 -7.056,49.23065 -24.502,89.99206 -54.3563,127 -8.982,11.13425 -28.0738,30.14727 -38.7893,38.62931 -35.3025,27.94424 -78.0386,46.06883 -123.5,52.37689 -7.4451,1.03306 -22.8712,1.80459 -43.75,2.18814 -17.7375,0.32585 -32.25,0.78307 -32.25,1.01604 0,0.23297 2.3625,3.10146 5.25,6.37443 7.2979,8.27212 16.0836,22.5642 19.8086,32.22343 7.5351,19.53916 8.9414,31.14586 8.9414,73.79776 0,16.9917 0.2319,30.894 0.5154,30.894 0.2834,0 2.8709,-1.5507 5.75,-3.446 2.879,-1.8953 8.8346,-4.7078 13.2346,-6.25 7.7371,-2.7119 8.6572,-2.804 28,-2.804 18.2844,0 20.6005,0.2001 27,2.3329 13.9849,4.6609 24.134,12.3349 32.039,24.2258 2.538,3.8177 4.9175,6.9324 5.2878,6.9215 0.3703,-0.011 2.0232,-2.3293 3.6732,-5.1519 1.65,-2.8226 5.8188,-7.97 9.2641,-11.4387 7.3983,-7.4486 18.9866,-13.6412 29.7359,-15.8902 9.2339,-1.9321 33.7381,-1.9439 42.8146,-0.021 13.715,2.9061 28.5776,12.5433 36.1126,23.4163 1.5646,2.2578 3.3838,4.1051 4.0426,4.1051 0.6588,0 2.9601,-2.5729 5.114,-5.7175 9.4734,-13.8307 31.3665,-32.7631 50.4162,-43.598 32.1703,-18.2976 74.8854,-29.8815 111,-30.102 12.357,-0.075 13.9168,0.1226 18.4229,2.3404 19.0947,9.3978 24.0582,34.3155 9.9592,49.997 -6.7529,7.5109 -12.5973,9.9281 -26.9459,11.1447 -60.6079,5.1388 -103.1197,27.2541 -119.4429,62.136 -15.9838,34.1566 1.3337,70.8865 43.6314,92.5409 21.2064,10.8566 43.7027,16.7091 77.8753,20.2595 12.273,1.2751 18.6006,4.0926 24.8821,11.0791 11.2843,12.5508 10.6856,32.0927 -1.3406,43.7638 -9.1553,8.8848 -18.0282,10.5267 -41.5415,7.6869 -63.2095,-7.6341 -112.7053,-31.0701 -142.826,-67.6273 -4.4879,-5.4469 -8.613,-9.8919 -9.1669,-9.8777 -0.5539,0.014 -2.5498,2.2994 -4.4353,5.0783 -6.6571,9.8113 -19.1166,18.4375 -32.5718,22.5507 -7.6327,2.3332 -38.7375,2.6515 -47.5,0.486 -14.5387,-3.5931 -30.0721,-14.7613 -37.2712,-26.7974 -1.7579,-2.9389 -3.6542,-5.3434 -4.2141,-5.3434 -0.56,0 -2.1424,2.1211 -3.5164,4.7136 -3.7048,6.9899 -14.4718,17.2387 -22.5599,21.4739 -12.4255,6.5064 -16.6079,7.3125 -37.9384,7.3125 -21.7929,0 -27.5099,-1.2148 -39.8609,-8.4698 -3.7735,-2.2166 -7.0226,-4.0302 -7.2202,-4.0302 -0.1976,0 -0.5028,77.5125 -0.6783,172.25 -0.317,171.1864 -0.332,172.3056 -2.4296,181.25 -5.4351,23.1762 -14.3575,40.196 -29.274,55.8408 -17.2858,18.1297 -37.6094,29.2869 -62.4002,34.2561 -7.398,1.4829 -33.7402,1.6433 -290.1368,1.767 -155.1,0.075 -285.375,-0.1423 -289.5,-0.4825 z m 308.3564,-215.9126 c 39.64115,-3.7591 77.00911,-18.9256 107.6436,-43.6893 9.7322,-7.8672 27.0289,-25.7528 34.1178,-35.2795 27.391,-36.8108 41.5926,-82.4372 39.5296,-127 -1.7358,-37.4929 -12.4663,-70.5993 -33.0608,-102 -8.7494,-13.3404 -18.6226,-24.8221 -25.0738,-29.1586 -21.8091,-14.6603 -51.03242,0.5078 -52.32426,27.1586 -0.49389,10.1891 1.84597,16.069 10.94337,27.5 15.36879,19.3111 23.14049,35.13 28.49509,58 1.4923,6.3741 1.8667,11.8615 1.8421,27 -0.028,17.2703 -0.2773,19.9808 -2.7365,29.7739 -12.6032,50.1881 -50.09647,86.4032 -100.7326,97.2988 -11.92311,2.5655 -32.49755,2.9969 -45.5,0.954 -37.26737,-5.8553 -68.99333,-26.171 -89.05536,-57.0267 -9.69264,-14.9074 -15.3411,-28.6542 -19.10658,-46.5 -2.49897,-11.8434 -2.49649,-38.1771 0.005,-50 4.16632,-19.6936 12.4597,-38.1539 23.58595,-52.5 11.68053,-15.0608 13.92651,-18.7091 15.62894,-25.3872 5.01348,-19.6664 -9.67166,-39.9526 -30.27386,-41.8208 -6.82004,-0.6184 -15.42042,1.4824 -21.15267,5.167 -10.56727,6.7924 -28.18154,30.9941 -39.07379,53.6866 -32.2335,67.154 -24.17407,146.2025 21.00233,205.9952 8.08321,10.6985 27.06251,29.6873 37.72,37.739 31.78894,24.0164 64.5332,36.374 107.22032,40.4647 7.81406,0.7488 20.10168,0.5968 30.3564,-0.3757 z m -2.73857,-166.3941 c 7.19985,-3.2962 14.61667,-11.0329 17.556,-18.3132 L 933.5,1305.5 l 0.27039,-115.8961 c 0.30031,-128.7215 0.56411,-123.1513 -6.308,-133.1915 -6.54048,-9.5557 -16.13198,-14.5596 -27.96239,-14.5882 -13.73102,-0.033 -25.42113,7.3408 -31.19262,19.6758 l -2.80738,6 v 119.5 119.5 l 2.60111,5.5456 c 8.38897,17.8855 28.13117,25.4885 45.51672,17.5291 z"
       id="path5153"
       inkscape:connector-curvature="0" />
    <path
       style="fill:#c4c4c4"
       d="m 608,1711.8814 c -40.36854,-3.3297 -76.48014,-28.7539 -94.02805,-66.2002 -4.76216,-10.1622 -8.55425,-23.9699 -9.93667,-36.1812 -0.65215,-5.7606 -1.02182,-70.0986 -1.02708,-178.75 -0.005,-93.3625 -0.34889,-169.75 -0.76529,-169.75 -0.4164,0 -3.2289,2.0439 -6.25,4.542 -13.63384,11.2736 -27.52191,15.0221 -52.49291,14.168 -16.55842,-0.5663 -21.92195,-1.7719 -32.52153,-7.3102 -8.79152,-4.5935 -15.9145,-11.0304 -21.49494,-19.4246 -2.55042,-3.8364 -5.04342,-6.9752 -5.54,-6.9752 -0.49659,0 -1.87525,1.9125 -3.0637,4.25 -1.18844,2.3375 -5.58509,7.6715 -9.77032,11.8532 -14.09308,14.0815 -28.05724,18.5135 -55.60951,17.6495 -12.86636,-0.4035 -16.12232,-0.8518 -22.89015,-3.1515 -4.33958,-1.4747 -9.88141,-3.8481 -12.31517,-5.2744 -5.71688,-3.3503 -14.167,-11.0921 -17.7494,-16.2615 -1.54951,-2.2359 -3.37767,-4.0653 -4.06259,-4.0653 -0.68492,0 -2.51264,1.6875 -4.0616,3.75 -17.39991,23.1687 -44.41226,43.0175 -75.06965,55.1616 -22.16476,8.78 -45.03457,14.389 -71.85144,17.6222 -23.518886,2.8355 -32.387343,1.1938 -41.541453,-7.6899 -12.026283,-11.6711 -12.624935,-31.213 -1.340678,-43.7638 6.281485,-6.9865 12.609098,-9.804 24.882131,-11.0791 34.17256,-3.5504 56.66892,-9.4029 77.87526,-20.2595 30.22744,-15.475 47.39843,-37.5254 49.2472,-63.2415 2.67861,-37.2593 -31.38751,-71.6162 -84.13138,-84.8497 -14.05771,-3.5271 -19.84402,-4.4801 -37.49108,-6.1753 -18.231073,-1.7512 -23.301358,-3.6796 -30.382131,-11.5551 -14.098953,-15.6815 -9.135433,-40.5992 9.95922,-49.997 4.506091,-2.2178 6.065949,-2.4159 18.422911,-2.3404 27.81613,0.1698 63.59312,8.0174 91.10229,19.9829 12.15156,5.2855 28.33421,14.6388 38.53206,22.2708 10.40527,7.7872 25.19425,22.3504 30.86565,30.3944 2.2,3.1204 4.69048,5.695 5.53439,5.7214 0.84392,0.026 2.29516,-1.2399 3.22499,-2.8139 3.13396,-5.3054 14.45683,-14.889 21.94438,-18.5736 4.01293,-1.9747 10.44624,-4.2518 14.29624,-5.0601 9.20012,-1.9316 33.72301,-1.9522 42.76606,-0.036 16.75357,3.5502 31.93456,14.4406 39.90936,28.6298 1.20608,2.1459 2.49734,3.9017 2.86948,3.9017 0.37213,0 2.55026,-2.8972 4.84028,-6.4382 8.29531,-12.8269 22.92403,-22.9316 37.74392,-26.0714 9.17233,-1.9433 33.62566,-1.9313 42.84221,0.021 9.00464,1.9075 19.55039,6.9756 26.71124,12.8371 3.12541,2.5583 5.89594,4.6515 6.15675,4.6515 0.26081,0 0.6827,-18.5625 0.93755,-41.25 0.49807,-44.3396 0.78353,-47.17 6.42957,-63.75 4.74995,-13.94854 12.40398,-27.11674 22.37817,-38.5 l 5.25729,-6 -22.92094,-0.7108 c -25.57215,-0.79303 -45.28111,-3.21657 -63.47307,-7.80507 -93.48977,-23.58063 -164.616,-97.55659 -184.88174,-192.2892 -5.1712,-24.1729 -5.07319,-19.40162 -5.06766,-246.69493 0.003,-136.48692 0.36517,-214.69205 1.02025,-220.5 2.66861,-23.65994 8.33562,-46.63085 16.65252,-67.5 C 309.77617,132.95001 379.36845,74.645236 461.1716,58.100263 485.12559,53.255485 461.69446,53.5 902,53.5 c 393.0873,0 414.0677,0.08876 425,1.798035 81.8396,12.79569 149.7471,61.128125 187.1316,133.188905 17.0467,32.85856 25.7424,65.09556 27.7869,103.01306 0.5126,9.50615 0.8131,106.26498 0.6818,219.5 -0.215,185.41408 -0.3799,203.5125 -1.9547,214.5 -7.056,49.23065 -24.502,89.99206 -54.3563,127 -8.982,11.13425 -28.0738,30.14727 -38.7893,38.62931 -35.3025,27.94424 -78.0386,46.06883 -123.5,52.37689 -7.4451,1.03306 -22.8712,1.80459 -43.75,2.18814 -17.7375,0.32585 -32.25,0.78307 -32.25,1.01604 0,0.23297 2.3625,3.10146 5.25,6.37443 7.2979,8.27212 16.0836,22.5642 19.8086,32.22343 7.5351,19.53916 8.9414,31.14586 8.9414,73.79776 0,16.9917 0.2319,30.894 0.5154,30.894 0.2834,0 2.8709,-1.5507 5.75,-3.446 2.879,-1.8953 8.8346,-4.7078 13.2346,-6.25 7.7371,-2.7119 8.6572,-2.804 28,-2.804 18.2844,0 20.6005,0.2001 27,2.3329 13.9849,4.6609 24.134,12.3349 32.039,24.2258 2.538,3.8177 4.9175,6.9324 5.2878,6.9215 0.3703,-0.011 2.0232,-2.3293 3.6732,-5.1519 1.65,-2.8226 5.8188,-7.97 9.2641,-11.4387 7.3983,-7.4486 18.9866,-13.6412 29.7359,-15.8902 9.2339,-1.9321 33.7381,-1.9439 42.8146,-0.021 13.715,2.9061 28.5776,12.5433 36.1126,23.4163 1.5646,2.2578 3.3838,4.1051 4.0426,4.1051 0.6588,0 2.9601,-2.5729 5.114,-5.7175 9.4734,-13.8307 31.3665,-32.7631 50.4162,-43.598 32.1703,-18.2976 74.8854,-29.8815 111,-30.102 12.357,-0.075 13.9168,0.1226 18.4229,2.3404 19.0947,9.3978 24.0582,34.3155 9.9592,49.997 -6.7529,7.5109 -12.5973,9.9281 -26.9459,11.1447 -60.6079,5.1388 -103.1197,27.2541 -119.4429,62.136 -15.9838,34.1566 1.3337,70.8865 43.6314,92.5409 21.2064,10.8566 43.7027,16.7091 77.8753,20.2595 12.273,1.2751 18.6006,4.0926 24.8821,11.0791 11.2843,12.5508 10.6856,32.0927 -1.3406,43.7638 -9.1553,8.8848 -18.0282,10.5267 -41.5415,7.6869 -63.2095,-7.6341 -112.7053,-31.0701 -142.826,-67.6273 -4.4879,-5.4469 -8.613,-9.8919 -9.1669,-9.8777 -0.5539,0.014 -2.5498,2.2994 -4.4353,5.0783 -6.6571,9.8113 -19.1166,18.4375 -32.5718,22.5507 -7.6327,2.3332 -38.7375,2.6515 -47.5,0.486 -14.5387,-3.5931 -30.0721,-14.7613 -37.2712,-26.7974 -1.7579,-2.9389 -3.6542,-5.3434 -4.2141,-5.3434 -0.56,0 -2.1424,2.1211 -3.5164,4.7136 -3.7048,6.9899 -14.4718,17.2387 -22.5599,21.4739 -12.4255,6.5064 -16.6079,7.3125 -37.9384,7.3125 -21.7929,0 -27.5099,-1.2148 -39.8609,-8.4698 -3.7735,-2.2166 -7.0226,-4.0302 -7.2202,-4.0302 -0.1976,0 -0.5028,77.5125 -0.6783,172.25 -0.317,171.1864 -0.332,172.3056 -2.4296,181.25 -5.4351,23.1762 -14.3575,40.196 -29.274,55.8408 -17.2858,18.1297 -37.6094,29.2869 -62.4002,34.2561 -7.398,1.4829 -33.7402,1.6433 -290.1368,1.767 -155.1,0.075 -285.375,-0.1423 -289.5,-0.4825 z m 308.3564,-215.9126 c 39.64115,-3.7591 77.00911,-18.9256 107.6436,-43.6893 9.7322,-7.8672 27.0289,-25.7528 34.1178,-35.2795 27.391,-36.8108 41.5926,-82.4372 39.5296,-127 -1.7358,-37.4929 -12.4663,-70.5993 -33.0608,-102 -8.7494,-13.3404 -18.6226,-24.8221 -25.0738,-29.1586 -21.8091,-14.6603 -51.03242,0.5078 -52.32426,27.1586 -0.49389,10.1891 1.84597,16.069 10.94337,27.5 15.36879,19.3111 23.14049,35.13 28.49509,58 1.4923,6.3741 1.8667,11.8615 1.8421,27 -0.028,17.2703 -0.2773,19.9808 -2.7365,29.7739 -12.6032,50.1881 -50.09647,86.4032 -100.7326,97.2988 -11.92311,2.5655 -32.49755,2.9969 -45.5,0.954 -37.26737,-5.8553 -68.99333,-26.171 -89.05536,-57.0267 -9.69264,-14.9074 -15.3411,-28.6542 -19.10658,-46.5 -2.49897,-11.8434 -2.49649,-38.1771 0.005,-50 4.16632,-19.6936 12.4597,-38.1539 23.58595,-52.5 11.68053,-15.0608 13.92651,-18.7091 15.62894,-25.3872 5.01348,-19.6664 -9.67166,-39.9526 -30.27386,-41.8208 -6.82004,-0.6184 -15.42042,1.4824 -21.15267,5.167 -10.56727,6.7924 -28.18154,30.9941 -39.07379,53.6866 -32.2335,67.154 -24.17407,146.2025 21.00233,205.9952 8.08321,10.6985 27.06251,29.6873 37.72,37.739 31.78894,24.0164 64.5332,36.374 107.22032,40.4647 7.81406,0.7488 20.10168,0.5968 30.3564,-0.3757 z m -2.73857,-166.3941 c 7.19985,-3.2962 14.61667,-11.0329 17.556,-18.3132 L 933.5,1305.5 l 0.27039,-115.8961 c 0.30031,-128.7215 0.56411,-123.1513 -6.308,-133.1915 -6.54048,-9.5557 -16.13198,-14.5596 -27.96239,-14.5882 -13.73102,-0.033 -25.42113,7.3408 -31.19262,19.6758 l -2.80738,6 v 119.5 119.5 l 2.60111,5.5456 c 8.38897,17.8855 28.13117,25.4885 45.51672,17.5291 z M 503.79216,587.44071 c 10.81274,-2.18742 21.7896,-7.80449 25.92912,-13.26845 5.67151,-7.48609 4.11663,-16.38043 -3.93751,-22.52361 -20.15893,-15.37597 -66.39661,-13.72592 -81.73743,2.91691 -6.65986,7.22509 -6.41011,14.75694 0.71926,21.69122 4.73763,4.60799 15.03549,9.4355 23.87436,11.19202 9.44046,1.87607 25.85717,1.87229 35.1522,-0.008 z m 753.00004,-0.0137 c 31.7081,-6.47098 39.6727,-27.8482 14.8595,-39.88383 -32.7659,-15.89313 -86.248,-1.06012 -78.695,21.82569 2.4217,7.33768 15.219,15.40425 28.6833,18.07995 9.4798,1.88389 25.8639,1.87372 35.1522,-0.0218 z"
       id="path5151"
       inkscape:connector-curvature="0" />
    <path
       style="fill:#a6a6a6"
       d="m 863.83787,622.95971 c -48.06931,-5.60947 -87.9417,-26.32643 -108.83394,-56.54812 -8.8321,-12.77609 -15.01582,-28.55564 -16.56847,-42.27929 -1.21018,-10.69655 4.01536,-17.12095 13.93219,-17.12856 4.30237,-0.003 5.29754,0.43174 8.56957,3.74626 3.25268,3.29492 3.91149,4.83201 5.42883,12.66613 4.77001,24.62792 20.4886,43.59406 47.13395,56.87205 43.82766,21.84033 108.14395,21.48562 152.60539,-0.84162 25.46708,-12.78883 40.90631,-31.63229 45.83931,-55.94656 1.8106,-8.92419 2.4052,-10.34964 5.5274,-13.25 2.9326,-2.7243 4.2692,-3.2494 8.2632,-3.24626 8.7521,0.007 14.2647,5.54023 14.2647,14.31838 0,7.15356 -4.6662,23.48597 -9.479,33.17788 -18.182,36.6147 -62.44087,62.33972 -117.73159,68.43032 -10.88534,1.19909 -38.78451,1.21584 -48.95154,0.0294 z M 592.23549,480.89903 C 561.79586,476.31894 539.5649,451.64838 539.61136,422.5 539.63661,406.65525 544.90032,394.15986 556.5,382.40842 568.74164,370.00664 583.15771,364 600.68068,364 c 11.48195,0 17.79328,1.29705 27.12916,5.57533 32.98615,15.11633 45.10414,54.03977 26.01778,83.57008 -12.92407,19.99606 -38.01339,31.30139 -61.59213,27.75362 z m 577.73651,0.15893 c -20.3588,-2.75158 -38.5058,-15.45382 -47.4153,-33.18906 -11.5496,-22.99076 -7.3715,-47.31575 11.3293,-65.95966 C 1146.2289,369.60403 1160.0327,364 1178,364 c 17.9673,0 31.7711,5.60403 44.114,17.90924 14.5705,14.52611 20.5186,33.14873 16.5457,51.80198 -2.4448,11.47859 -7.0022,19.63316 -16.1514,28.89994 -6.4999,6.58337 -9.6093,8.87146 -16.5083,12.14767 -12.1863,5.78707 -24.2329,7.89329 -36.028,6.29913 z"
       id="path5149"
       inkscape:connector-curvature="0" />
    <path
       style="fill:#5f5f5f"
       d="m 871.5,622.3506 c -1.65,-0.19235 -7.22859,-0.84078 -12.39686,-1.44095 -5.16827,-0.60017 -14.61827,-2.36779 -21,-3.92806 -54.84622,-13.40931 -90.47118,-46.23425 -98.17207,-90.45602 -1.29641,-7.44451 -0.28719,-11.90293 3.49966,-15.46049 3.25647,-3.0593 9.94042,-3.85855 13.99732,-1.67376 4.27153,2.30037 5.56837,4.69364 7.63036,14.08154 2.49306,11.35052 5.33118,18.34373 10.84985,26.7344 23.82157,36.21867 85.42868,55.17975 145.50898,44.7839 34.16627,-5.91187 61.52642,-19.91191 77.35558,-39.58241 7.21508,-8.96601 11.61798,-18.61552 14.12718,-30.96157 1.8088,-8.89985 2.3928,-10.28937 5.5462,-13.19718 6.2815,-5.7924 15.0671,-3.95944 19.1844,4.00249 1.991,3.85024 1.2838,11.3684 -2.2004,23.39168 -13.0778,45.12869 -61.24322,77.00562 -125.85388,83.29285 -10.16198,0.98886 -31.18301,1.21719 -38.07632,0.41358 z M 586.0655,478.46637 C 568.80423,473.63908 555.07248,463.11351 547.62339,449 542.63863,439.55557 541,432.99944 541,422.5 c 0,-16.0898 4.98311,-27.75626 16.88604,-39.53365 8.74898,-8.65669 16.482,-13.11928 27.70997,-15.99091 28.48458,-7.28512 58.60887,6.20853 70.57337,31.61212 3.13627,6.65908 5.79589,17.63202 5.79589,23.91244 0,11.79159 -6.2256,27.86088 -14.38008,37.11729 -6.06961,6.88981 -16.51967,13.85539 -25.60776,17.06908 -9.43983,3.33807 -27.19398,4.21807 -35.91193,1.78 z m 576.6672,-0.0304 c -28.8264,-6.98473 -48.7495,-35.11364 -44.7657,-63.20339 3.1675,-22.33345 18.4691,-39.75017 42.033,-47.84317 7.7799,-2.67197 28.1739,-2.68107 36,-0.0161 19.7459,6.72409 33.4487,19.76583 39.6601,37.7469 3.5679,10.32852 3.7018,23.42416 0.3462,33.86018 -6.1745,19.20262 -23.1713,34.7828 -43.0592,39.47042 -7.9208,1.86696 -22.4775,1.85978 -30.2144,-0.0149 z"
       id="path5147"
       inkscape:connector-curvature="0" />
    <path
       style="fill:#020202"
       d="m 873.91333,620.96255 c -56.72452,-3.55792 -103.56215,-28.70841 -122.8247,-65.95342 -7.95246,-15.37644 -12.20991,-35.1227 -8.72084,-40.44769 5.61487,-8.56939 18.49789,-5.82553 20.19241,4.30064 4.98189,29.77082 21.67399,50.37814 52.80964,65.19641 19.76735,9.4078 39.9862,13.85538 66.67561,14.66677 32.27556,0.9812 60.7346,-4.55927 84.37836,-16.42699 18.31553,-9.19327 34.51429,-24.24021 41.53369,-38.58033 3.9854,-8.14196 7.0425,-17.92065 7.0425,-22.52691 0,-10.51965 12.8817,-15.87405 19.4397,-8.0803 3.2272,3.83527 3.3816,9.90499 0.5522,21.70716 -13.2048,55.08132 -80.71432,91.18532 -161.07857,86.14466 z M 592.5,478.3682 c -24.0935,-3.72372 -43.70665,-21.18058 -48.99443,-43.60793 -2.96941,-12.5943 -1.61633,-23.45987 4.52352,-36.32519 6.87641,-14.40871 22.28879,-26.49317 38.97091,-30.55614 7.71387,-1.87872 23.13962,-1.6015 30.5,0.54812 25.67196,7.49759 42.45016,28.79353 42.48813,53.9286 0.0371,24.55032 -15.16521,45.06726 -39.38653,53.15582 -7.8028,2.6057 -21.02739,3.95007 -28.1016,2.85672 z m 572.572,-0.9212 c -14.3817,-3.11888 -27.8741,-11.96746 -36.0927,-23.67034 -7.3239,-10.42886 -9.491,-17.73455 -9.4262,-31.77666 0.044,-9.57316 0.4432,-12.50531 2.3818,-17.5 7.8786,-20.29907 24.6069,-33.68972 46.5709,-37.27916 8.5795,-1.40209 10.4089,-1.40209 18.9884,0 21.964,3.58944 38.6923,16.98009 46.5709,37.27916 1.9386,4.99469 2.3376,7.92684 2.3818,17.5 0.065,14.08619 -2.1017,21.34689 -9.5245,31.91659 -13.4249,19.11636 -38.3967,28.61667 -61.8504,23.53041 z"
       id="path5145"
       inkscape:connector-curvature="0" />
  </g>
</svg>
